#!OML:ASF E:\motion texture\Top Level 1\Subject 1\Session 1\male.ASF
:FULLY-SPECIFIED
:DEGREES
420
root 1.51935 17.8609 3.17424 38.6509 -72.7675 -36.3824
lowerback 1.2627 5.30605 3.95481
upperback 1.8225 7.08629 -6.29972
thorax 2.49053 3.67825 -8.69876
lowerneck -8.47859 13.951 3.11212
upperneck 34.4556 20.6471 -5.13844
head 14.1108 8.34141 0.389129
rclavicle -2.70347e-014 -2.8625e-014
rhumerus -19.802 0.675295 -82.0602
rradius 39.0789
rwrist 12.8549
rhand -11.4046 -21.5221
rfingers 7.12502
rthumb 14.6307 -50.986
lclavicle -2.70347e-014 -2.8625e-014
lhumerus -21.4092 -1.48993 80.1589
lradius 44.8273
lwrist -23.3078
lhand -19.7112 17.4549
lfingers 7.12502
lthumb 6.61859 47.3314
rfemur -11.0416 -3.01647 34.4211
rtibia 28.9233
rfoot -13.395 -13.7924
rtoes 5.79737
lfemur -21.7548 -10.6783 4.76433
ltibia 51.0013
lfoot -0.406084 -11.5203
ltoes -14.7326
421
root 1.40627 17.878 3.17949 39.3681 -73.0401 -37.0471
lowerback 1.17466 5.3192 4.02214
upperback 1.73485 7.10297 -6.28466
thorax 2.45774 3.685 -8.71565
lowerneck -8.51094 13.9526 3.07908
upperneck 34.4922 20.6506 -5.11444
head 14.1267 8.33657 0.406268
rclavicle -1.59028e-015 -1.90833e-014
rhumerus -19.7868 0.809221 -81.9956
rradius 39.4049
rwrist 12.7518
rhand -11.4849 -21.5074
rfingers 7.12502
rthumb 14.5533 -50.9769
lclavicle -1.59028e-015 -1.90833e-014
lhumerus -21.5437 -1.47846 79.9516
lradius 45.3027
lwrist -24.0771
lhand -20.2299 17.4078
lfingers 7.12502
lthumb 6.11788 47.2994
rfemur -10.4857 -2.85916 34.4691
rtibia 28.5583
rfoot -13.3393 -13.6077
rtoes 5.36824
lfemur -22.0884 -10.3505 4.73798
ltibia 50.0264
lfoot -1.33514 -11.0291
ltoes -15.0064
422
root 1.2937 17.8949 3.18573 40.1187 -73.3153 -37.7356
lowerback 1.08184 5.33296 4.08508
upperback 1.64747 7.12027 -6.27022
thorax 2.42758 3.69198 -8.73018
lowerneck -8.54847 13.9551 3.04141
upperneck 34.5303 20.6551 -5.08638
head 14.1432 8.33185 0.426183
rclavicle -6.20208e-014 1.27222e-014
rhumerus -19.7806 0.939077 -81.9301
rradius 39.7195
rwrist 12.6474
rhand -11.5602 -21.4931
rfingers 7.12502
rthumb 14.4808 -50.9678
lclavicle -6.20208e-014 1.27222e-014
lhumerus -21.6801 -1.36431 79.6927
lradius 45.6973
lwrist -24.8194
lhand -20.7524 17.4834
lfingers 7.12502
lthumb 5.61336 47.3891
rfemur -9.94394 -2.69728 34.5086
rtibia 28.198
rfoot -13.2765 -13.4231
rtoes 4.93366
lfemur -22.4037 -10.0314 4.71398
ltibia 48.9552
lfoot -2.21206 -10.5405
ltoes -15.2736
423
root 1.18127 17.9114 3.19299 40.9107 -73.5948 -38.4581
lowerback 0.985562 5.34924 4.14699
upperback 1.55929 7.14073 -6.25922
thorax 2.39949 3.70053 -8.74735
lowerneck -8.58171 13.9574 3.01194
upperneck 34.5645 20.6583 -5.06262
head 14.1587 8.3274 0.442764
rclavicle 1.11319e-014 3.18055e-015
rhumerus -19.787 1.06147 -81.8681
rradius 40.0213
rwrist 12.544
rhand -11.6372 -21.4806
rfingers 7.12502
rthumb 14.4066 -50.9607
lclavicle 1.11319e-014 3.18055e-015
lhumerus -21.8161 -1.15486 79.3784
lradius 46.0029
lwrist -25.5394
lhand -21.2261 17.595
lfingers 7.12502
lthumb 5.15606 47.5122
rfemur -9.41319 -2.52932 34.5403
rtibia 27.8432
rfoot -13.2075 -13.2385
rtoes 4.48848
lfemur -22.6946 -9.7205 4.69294
ltibia 47.7907
lfoot -3.02077 -10.0534
ltoes -15.51
424
root 1.06924 17.9273 3.20122 41.7341 -73.8745 -39.2029
lowerback 0.885016 5.36562 4.20464
upperback 1.472 7.16114 -6.2489
thorax 2.37429 3.70901 -8.76233
lowerneck -8.61912 13.9596 2.98122
upperneck 34.6001 20.6618 -5.03842
head 14.1755 8.32273 0.46013
rclavicle 8.42847e-014 -9.22361e-014
rhumerus -19.8024 1.18002 -81.8049
rradius 40.3094
rwrist 12.4396
rhand -11.7166 -21.4716
rfingers 7.12502
rthumb 14.3301 -50.957
lclavicle 8.42847e-014 -9.22361e-014
lhumerus -21.9516 -0.85638 79.0147
lradius 46.2224
lwrist -26.2282
lhand -21.6564 17.7341
lfingers 7.12502
lthumb 4.7405 47.6611
rfemur -8.89742 -2.35829 34.5639
rtibia 27.4964
rfoot -13.1347 -13.0557
rtoes 4.03684
lfemur -22.9692 -9.42232 4.67501
ltibia 46.5429
lfoot -3.75667 -9.56948
ltoes -15.7181
425
root 0.957343 17.9426 3.21038 42.5936 -74.1549 -39.9764
lowerback 0.780655 5.38347 4.25836
upperback 1.38517 7.1833 -6.23948
thorax 2.3517 3.71833 -8.77551
lowerneck -8.65372 13.9619 2.95356
upperneck 34.6328 20.665 -5.01605
head 14.191 8.31837 0.476061
rclavicle -1.35174e-014 2.54444e-014
rhumerus -19.829 1.29361 -81.7412
rradius 40.5819
rwrist 12.3355
rhand -11.7924 -21.4673
rfingers 7.12502
rthumb 14.257 -50.9579
lclavicle -1.35174e-014 2.54444e-014
lhumerus -22.0859 -0.474361 78.6034
lradius 46.3514
lwrist -26.8881
lhand -22.0397 17.91
lfingers 7.12502
lthumb 4.37043 47.845
rfemur -8.39524 -2.18397 34.5799
rtibia 27.1601
rfoot -13.0604 -12.874
rtoes 3.57979
lfemur -23.2249 -9.13732 4.66095
ltibia 45.2178
lfoot -4.41337 -9.08852
ltoes -15.8875
426
root 0.845614 17.9571 3.22052 43.4875 -74.4345 -40.7776
lowerback 0.672306 5.40177 4.30837
upperback 1.3001 7.2059 -6.2302
thorax 2.33284 3.72789 -8.78616
lowerneck -8.68794 13.9647 2.92703
upperneck 34.6637 20.669 -4.99601
head 14.2062 8.31436 0.491055
rclavicle -1.43125e-014 -4.77083e-014
rhumerus -19.8643 1.40294 -81.6758
rradius 40.8374
rwrist 12.2324
rhand -11.8653 -21.4647
rfingers 7.12502
rthumb 14.1868 -50.9602
lclavicle -1.43125e-014 -4.77083e-014
lhumerus -22.218 -0.0141323 78.1472
lradius 46.3908
lwrist -27.5167
lhand -22.3877 18.15
lfingers 7.12502
lthumb 4.03437 48.0916
rfemur -7.90692 -2.00791 34.5884
rtibia 26.8357
rfoot -12.9864 -12.6932
rtoes 3.11829
lfemur -23.4637 -8.86857 4.65095
ltibia 43.8255
lfoot -4.99731 -8.60954
ltoes -16.0339
427
root 0.734004 17.9706 3.23162 44.4161 -74.7117 -41.6078
lowerback 0.562155 5.42109 4.3562
upperback 1.21605 7.22968 -6.22145
thorax 2.31609 3.73804 -8.79581
lowerneck -8.72075 13.9671 2.9031
upperneck 34.6937 20.6722 -4.97716
head 14.2212 8.31023 0.504983
rclavicle -2.38542e-014 -3.18055e-015
rhumerus -19.91 1.50537 -81.6085
rradius 41.074
rwrist 12.1303
rhand -11.9369 -21.4659
rfingers 7.12502
rthumb 14.1178 -50.9663
lclavicle -2.38542e-014 -3.18055e-015
lhumerus -22.3486 0.517998 77.647
lradius 46.3418
lwrist -28.1214
lhand -22.6845 18.4093
lfingers 7.12502
lthumb 3.74778 48.3561
rfemur -7.43233 -1.83088 34.5902
rtibia 26.5251
rfoot -12.9144 -12.5138
rtoes 2.6529
lfemur -23.6871 -8.61742 4.64578
ltibia 42.3773
lfoot -5.51298 -8.13327
ltoes -16.1616
428
root 0.622515 17.9832 3.2437 45.3767 -74.9855 -42.4646
lowerback 0.452807 5.44122 4.40472
upperback 1.13231 7.25443 -6.21543
thorax 2.29992 3.74871 -8.80878
lowerneck -8.75321 13.9691 2.8831
upperneck 34.7242 20.6735 -4.9572
head 14.2366 8.30592 0.518496
rclavicle -2.0276e-014 -4.13472e-014
rhumerus -19.9669 1.5959 -81.5424
rradius 41.29
rwrist 12.0324
rhand -12.0074 -21.4709
rfingers 7.12502
rthumb 14.0499 -50.976
lclavicle -2.0276e-014 -4.13472e-014
lhumerus -22.4776 1.1125 77.1022
lradius 46.2063
lwrist -28.702
lhand -22.9352 18.6951
lfingers 7.12502
lthumb 3.50567 48.646
rfemur -6.97243 -1.654 34.5852
rtibia 26.2311
rfoot -12.8459 -12.3363
rtoes 2.18301
lfemur -23.8972 -8.38608 4.64517
ltibia 40.8857
lfoot -5.96459 -7.65745
ltoes -16.2633
429
root 0.511104 17.9946 3.25672 46.3682 -75.2541 -43.3479
lowerback 0.343406 5.46131 4.45213
upperback 1.05057 7.27901 -6.20989
thorax 2.28578 3.75934 -8.82149
lowerneck -8.78627 13.971 2.86559
upperneck 34.7549 20.6746 -4.93832
head 14.2527 8.30168 0.531337
rclavicle -1.27222e-014 -1.27222e-014
rhumerus -20.0322 1.67938 -81.4749
rradius 41.4841
rwrist 11.9366
rhand -12.0781 -21.4815
rfingers 7.12502
rthumb 13.9817 -50.9913
lclavicle -1.27222e-014 -1.27222e-014
lhumerus -22.6045 1.76655 76.517
lradius 45.9882
lwrist -29.2623
lhand -23.1333 18.9998
lfingers 7.12502
lthumb 3.31441 48.9538
rfemur -6.52719 -1.47879 34.574
rtibia 25.9555
rfoot -12.7826 -12.16
rtoes 1.70801
lfemur -24.0959 -8.17488 4.6496
ltibia 39.3625
lfoot -6.36014 -7.18183
ltoes -16.3597
430
root 0.39972 18.0048 3.2707 47.392 -75.5168 -44.2608
lowerback 0.234607 5.48151 4.49839
upperback 0.97146 7.30365 -6.20369
thorax 2.27386 3.77006 -8.8327
lowerneck -8.81961 13.9727 2.84905
upperneck 34.7857 20.6751 -4.91968
head 14.269 8.29723 0.543894
rclavicle -6.36111e-015 -6.99722e-014
rhumerus -20.1052 1.7547 -81.4046
rradius 41.6545
rwrist 11.8439
rhand -12.1469 -21.4943
rfingers 7.12502
rthumb 13.9155 -51.0087
lclavicle -6.36111e-015 -6.99722e-014
lhumerus -22.7293 2.47499 75.895
lradius 45.6905
lwrist -29.8053
lhand -23.2755 19.3123
lfingers 7.12502
lthumb 3.17707 49.2684
rfemur -6.09586 -1.30536 34.5577
rtibia 25.7001
rfoot -12.725 -11.9854
rtoes 1.22987
lfemur -24.2831 -7.98476 4.65957
ltibia 37.8188
lfoot -6.70458 -6.70545
ltoes -16.4569
431
root 0.28833 18.0137 3.2856 48.4469 -75.7724 -45.203
lowerback 0.127646 5.50186 4.54386
upperback 0.894974 7.32845 -6.19676
thorax 2.26349 3.78093 -8.84268
lowerneck -8.85104 13.9737 2.8376
upperneck 34.8153 20.6751 -4.90634
head 14.2859 8.29263 0.553554
rclavicle 2.78299e-015 -6.36111e-015
rhumerus -20.1868 1.82014 -81.3314
rradius 41.8006
rwrist 11.7559
rhand -12.2166 -21.5108
rfingers 7.12502
rthumb 13.8482 -51.0298
lclavicle 2.78299e-015 -6.36111e-015
lhumerus -22.8515 3.23074 75.2391
lradius 45.3162
lwrist -30.3319
lhand -23.3607 19.6247
lfingers 7.12502
lthumb 3.0948 49.582
rfemur -5.67838 -1.13464 34.5371
rtibia 25.4674
rfoot -12.675 -11.8136
rtoes 0.74564
lfemur -24.4601 -7.81569 4.67535
ltibia 36.2669
lfoot -7.00463 -6.22835
ltoes -16.5641
432
root 0.176865 18.0212 3.30147 49.5315 -76.0203 -46.174
lowerback 0.0227064 5.52209 4.58965
upperback 0.822134 7.35306 -6.18932
thorax 2.25577 3.79185 -8.85227
lowerneck -8.88304 13.9743 2.82802
upperneck 34.844 20.6749 -4.89508
head 14.3031 8.28794 0.562202
rclavicle 9.14409e-015 -1.30403e-013
rhumerus -20.2748 1.87581 -81.2552
rradius 41.9212
rwrist 11.6722
rhand -12.2882 -21.5314
rfingers 7.12502
rthumb 13.7793 -51.0551
lclavicle 9.14409e-015 -1.30403e-013
lhumerus -22.9698 4.02758 74.5525
lradius 44.8704
lwrist -30.8394
lhand -23.3873 19.9546
lfingers 7.12502
lthumb 3.06912 49.9123
rfemur -5.27449 -0.968013 34.5119
rtibia 25.2585
rfoot -12.6348 -11.6432
rtoes 0.261069
lfemur -24.6278 -7.66843 4.69623
ltibia 34.7185
lfoot -7.26667 -5.75119
ltoes -16.6821
433
root 0.0652625 18.0273 3.31827 50.644 -76.2591 -47.1728
lowerback -0.0797528 5.54198 4.63532
upperback 0.753069 7.3772 -6.18068
thorax 2.25034 3.80267 -8.86053
lowerneck -8.91353 13.9748 2.8211
upperneck 34.8713 20.6746 -4.88701
head 14.3201 8.28329 0.569149
rclavicle -8.34896e-015 6.36111e-015
rhumerus -20.3698 1.91994 -81.1758
rradius 42.0156
rwrist 11.5955
rhand -12.3576 -21.5551
rfingers 7.12502
rthumb 13.7124 -51.0833
lclavicle -8.34896e-015 6.36111e-015
lhumerus -23.0831 4.86156 73.8391
lradius 44.3561
lwrist -31.3275
lhand -23.3623 20.2852
lfingers 7.12502
lthumb 3.09319 50.2426
rfemur -4.88369 -0.806337 34.4831
rtibia 25.0748
rfoot -12.6034 -11.4755
rtoes -0.228807
lfemur -24.7872 -7.54219 4.72221
ltibia 33.1845
lfoot -7.49654 -5.27565
ltoes -16.8141
